<svg width="27" height="30" viewBox="0 0 27 30" fill="none" xmlns="http://www.w3.org/2000/svg">
<path d="M9.8528 7.02509L12.6625 7.00301C15.5053 6.98093 18.1384 8.4741 19.5791 10.9222C20.3105 12.1642 20.6776 13.5608 20.6776 14.9519C20.6776 16.3429 20.3326 17.6567 19.6426 18.8738C18.2433 21.3413 15.6295 22.8814 12.7922 22.9035L10.0984 22.9255H3.83597L3.38333 27.0518L4.65846 29.2073L7.81867 29.1797L12.8419 29.1383C17.9093 29.0969 22.571 26.3507 25.0688 21.9457C27.5666 17.538 27.5197 12.1284 24.9501 7.76201C23.6777 5.5954 21.8754 3.84279 19.764 2.63942C18.8118 2.09018 17.7906 1.65686 16.7308 1.34498C15.4473 0.966855 14.1005 0.765381 12.7287 0.765381H12.6101L4.42386 0.834381L2.95001 4.73704L4.96206 7.02785H8.06707L8.07535 7.04165L9.82796 7.02785H9.8528V7.02509Z" fill="url(#paint0_linear_1854_14406)"/>
<path d="M9.09914 8.78603C11.343 12.6004 11.3817 17.3255 9.20126 21.1757L8.20214 22.9394L4.65551 29.2046H4.65L0.998495 22.9973H1.00401L4.55063 16.7376C5.15508 15.6695 5.14404 14.3613 4.52028 13.3042L0.874291 7.0969H0.868774L4.42091 0.831665L8.07241 7.03894L9.09914 8.78603Z" fill="url(#paint1_linear_1854_14406)"/>
<defs>
<linearGradient id="paint0_linear_1854_14406" x1="21.1026" y1="27.6893" x2="6.17923" y2="5.80241" gradientUnits="userSpaceOnUse">
<stop stop-color="#002A25"/>
<stop offset="1" stop-color="#82F4CF"/>
</linearGradient>
<linearGradient id="paint1_linear_1854_14406" x1="5.06676" y1="3.3626" x2="6.39432" y2="27.9019" gradientUnits="userSpaceOnUse">
<stop stop-color="#002A25"/>
<stop offset="1" stop-color="#82F4CF"/>
</linearGradient>
</defs>
</svg>
